<?xml version="1.0" encoding="utf-8"?>
<!-- Generator: Adobe Illustrator 23.0.2, SVG Export Plug-In . SVG Version: 6.00 Build 0)  -->
<svg version="1.1" id="Layer_1" xmlns="http://www.w3.org/2000/svg" xmlns:xlink="http://www.w3.org/1999/xlink" x="0px" y="0px"
	 viewBox="0 0 200 100" style="enable-background:new 0 0 200 100;" xml:space="preserve">
<style type="text/css">
	.st0{fill:none;}
	.st1{fill:#FFFFFF;}
</style>
<g>
	<rect x="40.17" y="27.15" class="st0" width="124.57" height="51.04"/>
	<path class="st1" d="M72.17,61.56l-3.13-6.54H55.79l-3.34,6.54l-0.18,0.46c-0.02,0.02-0.2,0.36-0.53,1.02
		c-0.49,0.98-0.74,1.99-0.74,3.02c0,1.78,0.98,3.05,2.95,3.8v0.63c-0.4,0-1.09-0.06-2.07-0.18c-1.38-0.16-2.63-0.25-3.73-0.25
		c-1.01,0-2.25,0.08-3.73,0.25c-1.01,0.12-1.68,0.18-2,0.18v-0.63c2.58-1.31,4.92-4.02,7.03-8.12l11.67-22.71
		c-0.89-1.8-2.12-3.2-3.67-4.18c-1.56-0.98-3.38-1.52-5.47-1.62v-0.63h1.23c1.1,0,2.61,0.07,4.54,0.21
		c2.02,0.14,3.33,0.21,3.94,0.21l17.75,37.05c-2.27,0.05-5,0.19-8.19,0.42v-0.63c1.78-0.3,2.67-1.27,2.67-2.88
		C73.93,65.78,73.34,63.97,72.17,61.56z M57.16,52.38h10.62l-5.1-10.69L57.16,52.38z M82.26,70.07L64.51,33.01h3.45
		c0.47,1.22,1.13,2.75,1.97,4.61c0.94,1.99,1.46,3.18,1.58,3.55c0.12,0.21,0.22,0.46,0.32,0.74l8.26,17.12
		c2.88,5.95,5.95,9.56,9.21,10.83v0.63C86.11,70.21,83.76,70.07,82.26,70.07z"/>
	<path class="st1" d="M93.58,57.87h0.81c0.16,3,1.37,5.47,3.62,7.42c2.2,1.92,4.73,2.88,7.59,2.88c2.2,0,4-0.62,5.38-1.86
		c1.38-1.24,2.07-2.73,2.07-4.46c0-1.83-0.67-3.25-2-4.25c-1.29-0.98-3.83-2.1-7.63-3.34c-3.05-1.01-5.22-1.84-6.5-2.5
		c-1.5-0.77-2.67-1.82-3.52-3.13c-0.91-1.34-1.37-2.84-1.37-4.5c0-1.85,0.62-3.67,1.86-5.45c-0.28,0.91-0.42,1.71-0.42,2.39
		c0,1.83,0.43,3.43,1.3,4.82c0.89,1.43,1.99,2.51,3.3,3.23c1.31,0.75,3.5,1.61,6.57,2.57c4.01,1.22,6.9,2.57,8.68,4.04
		c1.71,1.43,2.57,3.35,2.57,5.77c0,2.37-0.89,4.51-2.67,6.43c-1.81,1.95-4.5,2.92-8.09,2.92c-1.45,0-3.47-0.27-6.05-0.81
		c-2.25-0.47-3.94-0.71-5.06-0.74l-0.25-0.28c0.02-0.4,0.04-0.91,0.04-1.55c0-0.75-0.07-1.91-0.21-3.48
		c-0.12-1.57-0.18-2.74-0.18-3.52C93.44,59.46,93.49,58.59,93.58,57.87z M118.4,43.17h-0.74c-0.02-2.72-1.1-4.73-3.23-6.05
		c-2.09-1.29-4.62-1.93-7.59-1.93c-2.37,0-4.31,0.5-5.84,1.51c-1.55,1.01-2.32,2.21-2.32,3.62c0,1.5,0.61,2.68,1.83,3.55
		c1.27,0.94,3.76,2.05,7.49,3.34c3.47,1.2,5.89,2.17,7.28,2.92c1.48,0.82,2.71,1.99,3.69,3.52c0.98,1.57,1.48,3.32,1.48,5.24
		c0,2.93-1.08,5.23-3.23,6.89c0.8-1.1,1.2-2.65,1.2-4.64c0-1.88-0.43-3.54-1.3-4.99c-0.91-1.48-2.04-2.65-3.38-3.52
		c-1.36-0.89-3.57-1.84-6.64-2.85c-4.62-1.52-7.63-2.82-9.04-3.9c-1.41-1.1-2.11-2.81-2.11-5.13c0-2.67,1.08-4.77,3.23-6.29
		c2.16-1.48,5.21-2.21,9.18-2.21c2.69,0,5.99,0.47,9.88,1.41v0.25l0.07,1.34c0,0.7,0.02,1.55,0.07,2.53
		c0.07,1.2,0.11,2.25,0.11,3.16C118.47,41.53,118.45,42.28,118.4,43.17z"/>
	<path class="st1" d="M131.87,37.97c-2.67,3.45-4.01,8.03-4.01,13.75c0,6.7,1.65,11.74,4.96,15.12c-2.51-1.05-4.5-2.96-5.98-5.73
		c-1.48-2.74-2.21-5.84-2.21-9.28c0-2.37,0.39-4.55,1.16-6.54c0.73-1.97,1.59-3.5,2.6-4.61C129.33,39.62,130.49,38.72,131.87,37.97z
		 M161.12,62.44h0.7l-1.13,5.94c-2.18,0.84-4.28,1.46-6.29,1.86s-3.96,0.6-5.84,0.6c-5.67,0-10.11-1.65-13.32-4.96
		c-3.21-3.28-4.82-8.05-4.82-14.31c0-6.23,1.72-11,5.17-14.31c3.42-3.28,7.95-4.92,13.57-4.92c4.08,0,8.2,0.74,12.38,2.21
		c-0.19,2.95-0.28,4.7-0.28,5.24c0,0.49,0.01,0.97,0.04,1.44v0.84c0,1.22-0.06,2.38-0.18,3.48h-0.6
		c-1.45-7.08-5.51-10.62-12.16-10.62c-4.5,0-8.09,1.46-10.76,4.39c-2.67,2.91-4.01,7.1-4.01,12.59c0,4.8,1.23,8.71,3.69,11.71
		c2.44,3,6.12,4.5,11.04,4.5c2.72,0,5.2-0.54,7.45-1.62C158,65.48,159.78,64.12,161.12,62.44z"/>
</g>
<g>
</g>
<g>
</g>
<g>
</g>
<g>
</g>
<g>
</g>
<g>
</g>
</svg>
